<?xml version="1.0" encoding="UTF-8"?>
<!-- Generator: Adobe Illustrator 27.2.0, SVG Export Plug-In . SVG Version: 6.00 Build 0)  -->
<svg xmlns="http://www.w3.org/2000/svg" xmlns:xlink="http://www.w3.org/1999/xlink" version="1.1" x="0px" y="0px" viewBox="0 0 120 44" style="enable-background:new 0 0 120 44;" xml:space="preserve">
<style type="text/css">
	.st0{fill:#414042;}
	.st1{display:none;}
	.st2{display:inline;}
	.st3{fill:#FFFFFF;}
</style>
<g id="grey">
	<g id="XMLID_37_">
		<path id="XMLID_49_" class="st0" d="M118.2,29.5c0-1.9-0.3-3.9-1-5.7c-0.6-1.7-1.7-2.9-3.2-4c-2.6-1.7-6.8-2.9-9.9-3.7    c-1.1-0.3-2.9-0.9-3.6-1.6c-0.7-0.7-0.8-1.5-0.8-2.3c0-1.5,0.9-2.8,2.5-2.8c2.5,0,2.6,2.6,2.6,4.4v0.8h11.6c0.2,0,0.4-0.2,0.4-0.4    V5.1c0-0.2-0.1-0.3-0.2-0.4c-4.6-3.1-9.5-4.2-15.1-4.2C97.8,0.5,93.8,1,91,3c-3.4,2.6-4.1,4.8-4.3,9.2v0.9    c0,8.9,4.4,10.8,12.2,12.8c3.6,0.9,6.2,1.2,6.2,5.5c0,1.5-0.8,3.2-2.5,3.2c-1,0-1.9-0.5-2.3-1.4c-0.4-0.8-0.4-2.5-0.4-4.7    c0-0.2-0.2-0.5-0.4-0.5H87.8c-0.2,0-0.4,0.2-0.4,0.4V39c0,0.1,0.1,0.3,0.2,0.4c4.2,3.2,9.7,4.2,14.8,4.2    c12.3,0,15.8-5.9,15.8-13.9V29.5z"></path>
		<path id="XMLID_48_" class="st0" d="M65.1,5.1c-4.5-3.4-10.3-4.6-15.9-4.6c-3.8,0-7.9,0.7-10.9,3.2c-3,2.5-3.4,6.1-3.4,9.8v15.8    c0,4.5,0.2,8.3,4,11.5c2.9,2.5,7.2,2.8,10.9,2.8c5.2,0,11.2-0.8,15.3-4.4c0.1-0.1,0.2-0.2,0.2-0.3V19.7c0-0.2-0.2-0.4-0.4-0.4h-13    c-0.2,0-0.4,0.2-0.4,0.4v7.6h1.4v1.8c0,1.9,0.4,5.4-2.5,5.4c-2.4,0-2.6-2.3-2.6-2.7V13.5c0-1.8,0.2-4.1,2.6-4.1    c2.9,0,2.5,3.5,2.5,5.4v0.9h12c0.2,0,0.4-0.2,0.4-0.4V5.5C65.3,5.3,65.2,5.2,65.1,5.1z"></path>
		<path id="XMLID_47_" class="st0" d="M83.2,1.3H69.5c-0.2,0-0.4,0.2-0.4,0.4V9c0,0.1,0,0.2,0.1,0.3c0.8,0.9,0.7,2.2,0.7,3.5v18.6    c0,1.3,0.1,2.5-0.7,3.5c-0.1,0.1-0.1,0.2-0.1,0.3v7.2c0,0.2,0.2,0.4,0.4,0.4h13.6c0.2,0,0.4-0.2,0.4-0.4V35c0-0.1,0-0.2-0.1-0.3    c-0.8-0.9-0.7-2.2-0.7-3.5V12.7c0-1.3-0.1-2.5,0.7-3.5c0.1-0.1,0.1-0.2,0.1-0.3V1.7C83.6,1.5,83.4,1.3,83.2,1.3z"></path>
		<path id="XMLID_44_" class="st0" d="M119.8,40.8c-0.2-0.3-0.4-0.5-0.7-0.7c-0.3-0.2-0.6-0.2-0.9-0.2c-0.3,0-0.6,0.1-0.9,0.2    c-0.3,0.2-0.5,0.4-0.7,0.7c-0.2,0.3-0.2,0.6-0.2,0.9c0,0.3,0.1,0.6,0.2,0.9c0.2,0.3,0.4,0.5,0.7,0.7c0.3,0.2,0.6,0.2,0.9,0.2    s0.6-0.1,0.9-0.2c0.3-0.2,0.5-0.4,0.7-0.7c0.2-0.3,0.2-0.6,0.2-0.9C120,41.4,119.9,41.1,119.8,40.8z M119.5,42.4    c-0.1,0.2-0.3,0.4-0.5,0.5c-0.2,0.1-0.5,0.2-0.7,0.2c-0.3,0-0.5-0.1-0.7-0.2c-0.2-0.1-0.4-0.3-0.5-0.5c-0.1-0.2-0.2-0.5-0.2-0.7    c0-0.3,0.1-0.5,0.2-0.7c0.1-0.2,0.3-0.4,0.6-0.5c0.2-0.1,0.5-0.2,0.7-0.2c0.2,0,0.5,0.1,0.7,0.2c0.2,0.1,0.4,0.3,0.6,0.5    c0.1,0.2,0.2,0.5,0.2,0.7C119.7,42,119.6,42.2,119.5,42.4z"></path>
		<path id="XMLID_41_" class="st0" d="M118.5,41.9c0,0-0.1-0.1-0.2-0.1c0.2,0,0.3-0.1,0.4-0.2c0.1-0.1,0.1-0.2,0.1-0.4    c0-0.1,0-0.2-0.1-0.3c-0.1-0.1-0.1-0.1-0.2-0.2c-0.1,0-0.3-0.1-0.5-0.1h-0.7v1.9h0.3v-0.8h0.2c0.1,0,0.2,0,0.2,0.1    c0.1,0.1,0.2,0.2,0.3,0.4l0.2,0.3h0.4l-0.2-0.4C118.7,42.1,118.6,42,118.5,41.9z M118.1,41.6h-0.4V41h0.4c0.2,0,0.3,0,0.3,0    c0.1,0,0.1,0.1,0.1,0.1c0,0,0,0.1,0,0.2c0,0.1,0,0.2-0.1,0.2C118.4,41.6,118.3,41.6,118.1,41.6z"></path>
		<path id="XMLID_38_" class="st0" d="M31.1,31.3v-2.4c0-4.2-1.4-5.9-5.4-6.9v-0.1c4.8-1.2,6.2-5.2,6.2-9.7c0-3.8-1.2-7.3-4.5-9.3    c-2.8-1.7-6.8-1.6-10-1.6H0.4C0.2,1.3,0,1.5,0,1.7V9c0,0.1,0,0.2,0.1,0.3c0.8,0.9,0.7,2.2,0.7,3.5v18.6c0,1.3,0.1,2.5-0.7,3.5    C0,34.8,0,34.9,0,35v7.2c0,0.2,0.2,0.4,0.4,0.4h13.6c0.2,0,0.4-0.2,0.4-0.4V35c0-0.1,0-0.2-0.1-0.3c-0.8-0.9-0.7-2.2-0.7-3.5v-4.7    h0.5c3.5,0.1,4.4,1.7,4.4,5c0,0,0,0,0,0v10.7c0,0.2,0.2,0.4,0.4,0.4h11.1c0,0,0,0,0,0h1.6c0.2,0,0.4-0.2,0.4-0.4V35    c0-0.1,0-0.2-0.1-0.3C31.4,33.8,31.1,32.4,31.1,31.3z M15,18.3h-0.9c-0.2,0-0.4-0.2-0.4-0.4v-7.6c0-0.2,0.2-0.4,0.4-0.4H15    c2.8,0,3.7,1.4,3.7,4.1C18.7,16.9,17.8,18.3,15,18.3z"></path>
	</g>
</g>
<g id="white" class="st1">
	<g id="XMLID_00000129927870162700366010000001973670449069150910_" class="st2">
		<path id="XMLID_00000021105224216678102430000007261767307646325387_" class="st3" d="M118.2,29.5c0-1.9-0.3-3.9-1-5.7    c-0.6-1.7-1.7-2.9-3.2-4c-2.6-1.7-6.8-2.9-9.9-3.7c-1.1-0.3-2.9-0.9-3.6-1.6c-0.7-0.7-0.8-1.5-0.8-2.3c0-1.5,0.9-2.8,2.5-2.8    c2.5,0,2.6,2.6,2.6,4.4v0.8h11.6c0.2,0,0.4-0.2,0.4-0.4V5.1c0-0.2-0.1-0.3-0.2-0.4c-4.6-3.1-9.5-4.2-15.1-4.2    C97.8,0.5,93.8,1,91,3c-3.4,2.6-4.1,4.8-4.3,9.2v0.9c0,8.9,4.4,10.8,12.2,12.8c3.6,0.9,6.2,1.2,6.2,5.5c0,1.5-0.8,3.2-2.5,3.2    c-1,0-1.9-0.5-2.3-1.4c-0.4-0.8-0.4-2.5-0.4-4.7c0-0.2-0.2-0.5-0.4-0.5H87.8c-0.2,0-0.4,0.2-0.4,0.4V39c0,0.1,0.1,0.3,0.2,0.4    c4.2,3.2,9.7,4.2,14.8,4.2c12.3,0,15.8-5.9,15.8-13.9V29.5z"></path>
		<path id="XMLID_00000154407272467830703870000002488725155932087692_" class="st3" d="M65.1,5.1c-4.5-3.4-10.3-4.6-15.9-4.6    c-3.8,0-7.9,0.7-10.9,3.2c-3,2.5-3.4,6.1-3.4,9.8v15.8c0,4.5,0.2,8.3,4,11.5c2.9,2.5,7.2,2.8,10.9,2.8c5.2,0,11.2-0.8,15.3-4.4    c0.1-0.1,0.2-0.2,0.2-0.3V19.7c0-0.2-0.2-0.4-0.4-0.4h-13c-0.2,0-0.4,0.2-0.4,0.4v7.6h1.4v1.8c0,1.9,0.4,5.4-2.5,5.4    c-2.4,0-2.6-2.3-2.6-2.7V13.5c0-1.8,0.2-4.1,2.6-4.1c2.9,0,2.5,3.5,2.5,5.4v0.9h12c0.2,0,0.4-0.2,0.4-0.4V5.5    C65.3,5.3,65.2,5.2,65.1,5.1z"></path>
		<path id="XMLID_00000049903832627045058750000006692007498890339738_" class="st3" d="M83.2,1.3H69.5c-0.2,0-0.4,0.2-0.4,0.4V9    c0,0.1,0,0.2,0.1,0.3c0.8,0.9,0.7,2.2,0.7,3.5v18.6c0,1.3,0.1,2.5-0.7,3.5c-0.1,0.1-0.1,0.2-0.1,0.3v7.2c0,0.2,0.2,0.4,0.4,0.4    h13.6c0.2,0,0.4-0.2,0.4-0.4V35c0-0.1,0-0.2-0.1-0.3c-0.8-0.9-0.7-2.2-0.7-3.5V12.7c0-1.3-0.1-2.5,0.7-3.5    c0.1-0.1,0.1-0.2,0.1-0.3V1.7C83.6,1.5,83.4,1.3,83.2,1.3z"></path>
		<path id="XMLID_00000070802002056675558050000012777695764456376463_" class="st3" d="M119.8,40.8c-0.2-0.3-0.4-0.5-0.7-0.7    c-0.3-0.2-0.6-0.2-0.9-0.2c-0.3,0-0.6,0.1-0.9,0.2c-0.3,0.2-0.5,0.4-0.7,0.7c-0.2,0.3-0.2,0.6-0.2,0.9c0,0.3,0.1,0.6,0.2,0.9    c0.2,0.3,0.4,0.5,0.7,0.7c0.3,0.2,0.6,0.2,0.9,0.2s0.6-0.1,0.9-0.2c0.3-0.2,0.5-0.4,0.7-0.7c0.2-0.3,0.2-0.6,0.2-0.9    C120,41.4,119.9,41.1,119.8,40.8z M119.5,42.4c-0.1,0.2-0.3,0.4-0.5,0.5c-0.2,0.1-0.5,0.2-0.7,0.2c-0.3,0-0.5-0.1-0.7-0.2    c-0.2-0.1-0.4-0.3-0.5-0.5c-0.1-0.2-0.2-0.5-0.2-0.7c0-0.3,0.1-0.5,0.2-0.7c0.1-0.2,0.3-0.4,0.6-0.5c0.2-0.1,0.5-0.2,0.7-0.2    c0.2,0,0.5,0.1,0.7,0.2c0.2,0.1,0.4,0.3,0.6,0.5c0.1,0.2,0.2,0.5,0.2,0.7C119.7,42,119.6,42.2,119.5,42.4z"></path>
		<path id="XMLID_00000009551777359824106970000012428428295731126180_" class="st3" d="M118.5,41.9c0,0-0.1-0.1-0.2-0.1    c0.2,0,0.3-0.1,0.4-0.2c0.1-0.1,0.1-0.2,0.1-0.4c0-0.1,0-0.2-0.1-0.3c-0.1-0.1-0.1-0.1-0.2-0.2c-0.1,0-0.3-0.1-0.5-0.1h-0.7v1.9    h0.3v-0.8h0.2c0.1,0,0.2,0,0.2,0.1c0.1,0.1,0.2,0.2,0.3,0.4l0.2,0.3h0.4l-0.2-0.4C118.7,42.1,118.6,42,118.5,41.9z M118.1,41.6    h-0.4V41h0.4c0.2,0,0.3,0,0.3,0c0.1,0,0.1,0.1,0.1,0.1c0,0,0,0.1,0,0.2c0,0.1,0,0.2-0.1,0.2C118.4,41.6,118.3,41.6,118.1,41.6z"></path>
		<path id="XMLID_00000008870351400859738690000010924608950241824141_" class="st3" d="M31.1,31.3v-2.4c0-4.2-1.4-5.9-5.4-6.9v-0.1    c4.8-1.2,6.2-5.2,6.2-9.7c0-3.8-1.2-7.3-4.5-9.3c-2.8-1.7-6.8-1.6-10-1.6H0.4C0.2,1.3,0,1.5,0,1.7V9c0,0.1,0,0.2,0.1,0.3    c0.8,0.9,0.7,2.2,0.7,3.5v18.6c0,1.3,0.1,2.5-0.7,3.5C0,34.8,0,34.9,0,35v7.2c0,0.2,0.2,0.4,0.4,0.4h13.6c0.2,0,0.4-0.2,0.4-0.4    V35c0-0.1,0-0.2-0.1-0.3c-0.8-0.9-0.7-2.2-0.7-3.5v-4.7h0.5c3.5,0.1,4.4,1.7,4.4,5c0,0,0,0,0,0v10.7c0,0.2,0.2,0.4,0.4,0.4h11.1    c0,0,0,0,0,0h1.6c0.2,0,0.4-0.2,0.4-0.4V35c0-0.1,0-0.2-0.1-0.3C31.4,33.8,31.1,32.4,31.1,31.3z M15,18.3h-0.9    c-0.2,0-0.4-0.2-0.4-0.4v-7.6c0-0.2,0.2-0.4,0.4-0.4H15c2.8,0,3.7,1.4,3.7,4.1C18.7,16.9,17.8,18.3,15,18.3z"></path>
	</g>
</g>
</svg>
